<?xml version="1.0" standalone="no"?>
<svg viewBox="0 0 200 200" xmlns="http://www.w3.org/2000/svg">
  <path fill="#A7F0BA" d="M44.1,-65.8C51.7,-55.3,48.5,-35,51.9,-18.3C55.4,-1.6,65.6,11.5,62.7,20.3C59.8,29.1,43.7,33.7,31.1,36.9C18.5,40.2,9.2,42.3,-5.1,49.3C-19.4,56.3,-38.8,68.3,-51.8,65.1C-64.7,61.9,-71.1,43.5,-77,25.1C-82.8,6.6,-88.2,-11.9,-78.4,-20.3C-68.6,-28.8,-43.6,-27.2,-28,-35C-12.4,-42.9,-6.2,-60.4,6.1,-68.7C18.3,-77,36.6,-76.3,44.1,-65.8Z" transform="translate(100 100)" />
</svg>
